{
  "accessors": [
    {
      "bufferView": 2,
      "componentType": 5126,
      "count": 9784,
      "max": [
        1.9726239442825317,
        1.9836649894714355,
        2.24937105178833
      ],
      "min": [
        -1.9697389602661133,
        -1.9568229913711548,
        -0.48649001121520996
      ],
      "type": "VEC3"
    },
    {
      "bufferView": 2,
      "byteOffset": 117408,
      "componentType": 5126,
      "count": 9784,
      "max": [
        0.9999933838844299,
        0.9998058676719666,
        0.9998428821563721
      ],
      "min": [
        -0.9993703365325928,
        -0.9999905228614807,
        -0.9999998807907104
      ],
      "type": "VEC3"
    },
    {
      "bufferView": 3,
      "componentType": 5126,
      "count": 9784,
      "max": [
        0.9983420968055725,
        0.9966441988945007,
        0.999660074710846,
        1.0
      ],
      "min": [
        -0.9994394779205322,
        -0.997965931892395,
        -0.9994818568229675,
        1.0
      ],
      "type": "VEC4"
    },
    {
      "bufferView": 1,
      "componentType": 5126,
      "count": 9784,
      "max": [
        0.9015979766845703,
        0.9901959896087646
      ],
      "min": [
        0.008926999755203724,
        0.00980400014668703
      ],
      "type": "VEC2"
    },
    {
      "bufferView": 0,
      "componentType": 5125,
      "count": 54978,
      "type": "SCALAR"
    },
    {
      "bufferView": 2,
      "byteOffset": 234816,
      "componentType": 5126,
      "count": 7193,
      "max": [
        1.982725977897644,
        2.0284879207611084,
        2.9392991065979004
      ],
      "min": [
        -2.243748903274536,
        -2.016693115234375,
        -0.5230950117111206
      ],
      "type": "VEC3"
    },
    {
      "bufferView": 2,
      "byteOffset": 321132,
      "componentType": 5126,
      "count": 7193,
      "max": [
        0.9995494484901428,
        0.9997396469116211,
        0.9997586607933044
      ],
      "min": [
        -0.9997815489768982,
        -0.9999533295631409,
        -0.9985793828964233
      ],
      "type": "VEC3"
    },
    {
      "bufferView": 3,
      "byteOffset": 156544,
      "componentType": 5126,
      "count": 7193,
      "max": [
        0.9999324679374695,
        0.999799370765686,
        0.999211311340332,
        1.0
      ],
      "min": [
        -0.9999990463256836,
        -0.9998253583908081,
        -0.9998224973678589,
        -1.0
      ],
      "type": "VEC4"
    },
    {
      "bufferView": 1,
      "byteOffset": 78272,
      "componentType": 5126,
      "count": 7193,
      "max": [
        0.9927999973297119,
        0.9936000108718872
      ],
      "min": [
        0.001769999973475933,
        0.0027099999133497477
      ],
      "type": "VEC2"
    },
    {
      "bufferView": 0,
      "byteOffset": 219912,
      "componentType": 5125,
      "count": 38610,
      "type": "SCALAR"
    },
    {
      "bufferView": 2,
      "byteOffset": 407448,
      "componentType": 5126,
      "count": 9205,
      "max": [
        1.3038079738616943,
        0.6075199842453003,
        2.252553939819336
      ],
      "min": [
        -1.3067840337753296,
        -1.5964499711990356,
        -0.5379019975662231
      ],
      "type": "VEC3"
    },
    {
      "bufferView": 2,
      "byteOffset": 517908,
      "componentType": 5126,
      "count": 9205,
      "max": [
        0.99965500831604,
        0.9991835355758667,
        0.9997182488441467
      ],
      "min": [
        -0.9998170137405396,
        -0.9997060894966125,
        -0.9999879002571106
      ],
      "type": "VEC3"
    },
    {
      "bufferView": 3,
      "byteOffset": 271632,
      "componentType": 5126,
      "count": 9205,
      "max": [
        0.9999219179153442,
        0.999987781047821,
        0.9998068809509277,
        1.0
      ],
      "min": [
        -0.9999935030937195,
        -0.9874187707901001,
        -0.9999533295631409,
        1.0
      ],
      "type": "VEC4"
    },
    {
      "bufferView": 1,
      "byteOffset": 135816,
      "componentType": 5126,
      "count": 9205,
      "max": [
        0.9944000244140625,
        0.9898999929428101
      ],
      "min": [
        0.4169299900531769,
        0.383109986782074
      ],
      "type": "VEC2"
    },
    {
      "bufferView": 0,
      "byteOffset": 374352,
      "componentType": 5125,
      "count": 52266,
      "type": "SCALAR"
    },
    {
      "bufferView": 2,
      "byteOffset": 628368,
      "componentType": 5126,
      "count": 495,
      "max": [
        0.026347000151872635,
        0.3527419865131378,
        2.0375030040740967
      ],
      "min": [
        -0.4975520074367523,
        -0.02607700042426586,
        1.1340839862823486
      ],
      "type": "VEC3"
    },
    {
      "bufferView": 2,
      "byteOffset": 634308,
      "componentType": 5126,
      "count": 495,
      "max": [
        0.9999861121177673,
        0.9999874830245972,
        1.0
      ],
      "min": [
        -0.9999861121177673,
        -0.9999874830245972,
        -1.0
      ],
      "type": "VEC3"
    },
    {
      "bufferView": 1,
      "byteOffset": 209456,
      "componentType": 5126,
      "count": 495,
      "max": [
        1.0,
        1.0
      ],
      "min": [
        0.0,
        0.0
      ],
      "type": "VEC2"
    },
    {
      "bufferView": 0,
      "byteOffset": 583416,
      "componentType": 5125,
      "count": 2376,
      "type": "SCALAR"
    },
    {
      "bufferView": 2,
      "byteOffset": 640248,
      "componentType": 5126,
      "count": 24,
      "max": [
        0.8776400089263916,
        1.9881609678268433,
        1.9150789976119995
      ],
      "min": [
        -0.9862099885940552,
        1.4723520278930664,
        1.574512004852295
      ],
      "type": "VEC3"
    },
    {
      "bufferView": 2,
      "byteOffset": 640536,
      "componentType": 5126,
      "count": 24,
      "max": [
        0.14076606929302216,
        0.20295299589633942,
        0.9547975063323975
      ],
      "min": [
        -0.9294909834861755,
        -0.9343061447143555,
        -0.4269099533557892
      ],
      "type": "VEC3"
    },
    {
      "bufferView": 1,
      "byteOffset": 213416,
      "componentType": 5126,
      "count": 24,
      "max": [
        0.49578899145126343,
        1.0
      ],
      "min": [
        0.0,
        0.041510000824928284
      ],
      "type": "VEC2"
    },
    {
      "bufferView": 0,
      "byteOffset": 592920,
      "componentType": 5125,
      "count": 54,
      "type": "SCALAR"
    }
  ],
  "asset": {
    "extras": {
      "author": "Václav Pleticha (https://sketchfab.com/klidas8)",
      "license": "CC-BY-4.0 (http://creativecommons.org/licenses/by/4.0/)",
      "source": "https://sketchfab.com/3d-models/pig-e3e6c10f4d0d418ead167df69c583ccb",
      "title": "Pig"
    },
    "generator": "Sketchfab-12.65.0",
    "version": "2.0"
  },
  "bufferViews": [
    {
      "buffer": 0,
      "byteLength": 593136,
      "name": "floatBufferViews",
      "target": 34963
    },
    {
      "buffer": 0,
      "byteLength": 213608,
      "byteOffset": 593136,
      "byteStride": 8,
      "name": "floatBufferViews",
      "target": 34962
    },
    {
      "buffer": 0,
      "byteLength": 640824,
      "byteOffset": 806744,
      "byteStride": 12,
      "name": "floatBufferViews",
      "target": 34962
    },
    {
      "buffer": 0,
      "byteLength": 418912,
      "byteOffset": 1447568,
      "byteStride": 16,
      "name": "floatBufferViews",
      "target": 34962
    }
  ],
  "buffers": [
    {
      "byteLength": 1866480,
      "uri": "scene.bin"
    }
  ],
  "extensionsUsed": [
    "KHR_materials_transmission"
  ],
  "images": [
    {
      "uri": "textures/baking_doplnkylambert3SG_baseColor.jpeg"
    },
    {
      "uri": "textures/baking_doplnkylambert3SG_metallicRoughness.png"
    },
    {
      "uri": "textures/baking_doplnkylambert3SG_normal.png"
    },
    {
      "uri": "textures/lambert2SG_baseColor.jpeg"
    },
    {
      "uri": "textures/lambert2SG_metallicRoughness.png"
    },
    {
      "uri": "textures/lambert2SG_normal.png"
    },
    {
      "uri": "textures/lambert3SG_baseColor.png"
    }
  ],
  "materials": [
    {
      "doubleSided": true,
      "name": "baking_doplnkylambert3SG",
      "normalTexture": {
        "index": 2
      },
      "occlusionTexture": {
        "index": 1
      },
      "pbrMetallicRoughness": {
        "baseColorTexture": {
          "index": 0
        },
        "metallicRoughnessTexture": {
          "index": 1
        }
      }
    },
    {
      "doubleSided": true,
      "name": "lambert2SG",
      "normalTexture": {
        "index": 5
      },
      "occlusionTexture": {
        "index": 4
      },
      "pbrMetallicRoughness": {
        "baseColorTexture": {
          "index": 3
        },
        "metallicRoughnessTexture": {
          "index": 4
        }
      }
    },
    {
      "alphaMode": "BLEND",
      "doubleSided": true,
      "name": "lambert3SG",
      "pbrMetallicRoughness": {
        "baseColorFactor": [
          0.0006849502726102096,
          0.0006849502726102096,
          0.0006849502726102096,
          1.0
        ],
        "baseColorTexture": {
          "index": 6
        },
        "metallicFactor": 0.0,
        "roughnessFactor": 0.0
      }
    },
    {
      "alphaMode": "BLEND",
      "doubleSided": true,
      "extensions": {
        "KHR_materials_transmission": {
          "transmissionFactor": 0.8914478952994871
        }
      },
      "name": "lambert4SG",
      "pbrMetallicRoughness": {
        "baseColorFactor": [
          0.5259747095201842,
          0.5259747095201842,
          0.5259747095201842,
          0.25
        ],
        "metallicFactor": 0.0,
        "roughnessFactor": 0.6
      }
    }
  ],
  "meshes": [
    {
      "name": "Object_0",
      "primitives": [
        {
          "attributes": {
            "NORMAL": 1,
            "POSITION": 0,
            "TANGENT": 2,
            "TEXCOORD_0": 3
          },
          "indices": 4,
          "material": 0,
          "mode": 4
        }
      ]
    },
    {
      "name": "Object_1",
      "primitives": [
        {
          "attributes": {
            "NORMAL": 6,
            "POSITION": 5,
            "TANGENT": 7,
            "TEXCOORD_0": 8
          },
          "indices": 9,
          "material": 1,
          "mode": 4
        }
      ]
    },
    {
      "name": "Object_2",
      "primitives": [
        {
          "attributes": {
            "NORMAL": 11,
            "POSITION": 10,
            "TANGENT": 12,
            "TEXCOORD_0": 13
          },
          "indices": 14,
          "material": 1,
          "mode": 4
        }
      ]
    },
    {
      "name": "Object_3",
      "primitives": [
        {
          "attributes": {
            "NORMAL": 16,
            "POSITION": 15,
            "TEXCOORD_0": 17
          },
          "indices": 18,
          "material": 3,
          "mode": 4
        }
      ]
    },
    {
      "name": "Object_4",
      "primitives": [
        {
          "attributes": {
            "NORMAL": 20,
            "POSITION": 19,
            "TEXCOORD_0": 21
          },
          "indices": 22,
          "material": 2,
          "mode": 4
        }
      ]
    }
  ],
  "nodes": [
    {
      "children": [
        1
      ],
      "matrix": [
        1.0,
        0.0,
        0.0,
        0.0,
        0.0,
        2.220446049250313e-16,
        -1.0,
        0.0,
        0.0,
        1.0,
        2.220446049250313e-16,
        0.0,
        0.0,
        0.0,
        0.0,
        1.0
      ],
      "name": "Sketchfab_model"
    },
    {
      "children": [
        2,
        3,
        4,
        5,
        6
      ],
      "name": "pig.obj.cleaner.materialmerger.gles"
    },
    {
      "mesh": 0,
      "name": "Object_2"
    },
    {
      "mesh": 1,
      "name": "Object_3"
    },
    {
      "mesh": 2,
      "name": "Object_4"
    },
    {
      "mesh": 3,
      "name": "Object_5"
    },
    {
      "mesh": 4,
      "name": "Object_6"
    }
  ],
  "samplers": [
    {
      "magFilter": 9729,
      "minFilter": 9987,
      "wrapS": 10497,
      "wrapT": 10497
    }
  ],
  "scene": 0,
  "scenes": [
    {
      "name": "Sketchfab_Scene",
      "nodes": [
        0
      ]
    }
  ],
  "textures": [
    {
      "sampler": 0,
      "source": 0
    },
    {
      "sampler": 0,
      "source": 1
    },
    {
      "sampler": 0,
      "source": 2
    },
    {
      "sampler": 0,
      "source": 3
    },
    {
      "sampler": 0,
      "source": 4
    },
    {
      "sampler": 0,
      "source": 5
    },
    {
      "sampler": 0,
      "source": 6
    }
  ]
}
